<svg width="17" height="17" viewBox="0 0 17 17" fill="none" xmlns="http://www.w3.org/2000/svg">
<path id="Vector" d="M4.35728 10.0793C4.62196 10.0793 4.87581 9.97419 5.06297 9.78703C5.25013 9.59986 5.35528 9.34602 5.35528 9.08133C5.35528 8.81665 5.25013 8.5628 5.06297 8.37564C4.87581 8.18848 4.62196 8.08333 4.35728 8.08333C4.09259 8.08333 3.83875 8.18848 3.65159 8.37564C3.46442 8.5628 3.35928 8.81665 3.35928 9.08133C3.35928 9.34602 3.46442 9.59986 3.65159 9.78703C3.83875 9.97419 4.09259 10.0793 4.35728 10.0793ZM5.35595 12.4153C5.35595 12.68 5.2508 12.9339 5.06364 13.121C4.87648 13.3082 4.62263 13.4133 4.35794 13.4133C4.09326 13.4133 3.83941 13.3082 3.65225 13.121C3.46509 12.9339 3.35994 12.68 3.35994 12.4153C3.35994 12.1506 3.46509 11.8968 3.65225 11.7096C3.83941 11.5225 4.09326 11.4173 4.35794 11.4173C4.62263 11.4173 4.87648 11.5225 5.06364 11.7096C5.2508 11.8968 5.35595 12.1506 5.35595 12.4153ZM8.02661 10.0793C8.2913 10.0793 8.54514 9.97419 8.7323 9.78703C8.91947 9.59986 9.02461 9.34602 9.02461 9.08133C9.02461 8.81665 8.91947 8.5628 8.7323 8.37564C8.54514 8.18848 8.2913 8.08333 8.02661 8.08333C7.76193 8.08333 7.50808 8.18848 7.32092 8.37564C7.13376 8.5628 7.02861 8.81665 7.02861 9.08133C7.02861 9.34602 7.13376 9.59986 7.32092 9.78703C7.50808 9.97419 7.76193 10.0793 8.02661 10.0793ZM9.02528 12.4153C9.02528 12.68 8.92013 12.9339 8.73297 13.121C8.54581 13.3082 8.29196 13.4133 8.02728 13.4133C7.76259 13.4133 7.50875 13.3082 7.32159 13.121C7.13442 12.9339 7.02928 12.68 7.02928 12.4153C7.02928 12.1506 7.13442 11.8968 7.32159 11.7096C7.50875 11.5225 7.76259 11.4173 8.02728 11.4173C8.29196 11.4173 8.54581 11.5225 8.73297 11.7096C8.92013 11.8968 9.02528 12.1506 9.02528 12.4153ZM11.6919 10.0793C11.9566 10.0793 12.2105 9.97419 12.3976 9.78703C12.5848 9.59986 12.6899 9.34602 12.6899 9.08133C12.6899 8.81665 12.5848 8.5628 12.3976 8.37564C12.2105 8.18848 11.9566 8.08333 11.6919 8.08333C11.4273 8.08333 11.1734 8.18848 10.9863 8.37564C10.7991 8.5628 10.6939 8.81665 10.6939 9.08133C10.6939 9.34602 10.7991 9.59986 10.9863 9.78703C11.1734 9.97419 11.4273 10.0793 11.6919 10.0793ZM16.0266 4.08333C16.0266 3.19928 15.6754 2.35143 15.0503 1.72631C14.4252 1.10119 13.5773 0.75 12.6933 0.75H3.35994C2.47589 0.75 1.62804 1.10119 1.00292 1.72631C0.377801 2.35143 0.0266113 3.19928 0.0266113 4.08333V13.4167C0.0266113 14.3007 0.377801 15.1486 1.00292 15.7737C1.62804 16.3988 2.47589 16.75 3.35994 16.75H12.6933C13.5773 16.75 14.4252 16.3988 15.0503 15.7737C15.6754 15.1486 16.0266 14.3007 16.0266 13.4167V4.08333ZM1.35994 6.08333H14.6933V13.4167C14.6933 13.9471 14.4826 14.4558 14.1075 14.8309C13.7324 15.206 13.2237 15.4167 12.6933 15.4167H3.35994C2.82951 15.4167 2.3208 15.206 1.94573 14.8309C1.57066 14.4558 1.35994 13.9471 1.35994 13.4167V6.08333ZM3.35994 2.08333H12.6933C13.2237 2.08333 13.7324 2.29405 14.1075 2.66912C14.4826 3.04419 14.6933 3.5529 14.6933 4.08333V4.75H1.35994V4.08333C1.35994 3.5529 1.57066 3.04419 1.94573 2.66912C2.3208 2.29405 2.82951 2.08333 3.35994 2.08333Z" fill="#777777"/>
</svg>
