<svg width="10" height="9" viewBox="0 0 10 9" fill="none" xmlns="http://www.w3.org/2000/svg">
<path id="Union" fill-rule="evenodd" clip-rule="evenodd" d="M9.03036 1.53033C9.32325 1.23744 9.32325 0.762562 9.03035 0.469669C8.73746 0.176776 8.26259 0.176777 7.96969 0.469671L5.00002 3.43936L2.03033 0.46967C1.73744 0.176777 1.26256 0.176777 0.96967 0.46967C0.676777 0.762563 0.676777 1.23744 0.96967 1.53033L3.93936 4.50002L0.969913 7.46947C0.67702 7.76236 0.677021 8.23724 0.969915 8.53013C1.26281 8.82302 1.73768 8.82302 2.03058 8.53013L5.00002 5.56068L7.96947 8.53013C8.26236 8.82302 8.73724 8.82302 9.03013 8.53013C9.32302 8.23724 9.32302 7.76236 9.03013 7.46947L6.06068 4.50002L9.03036 1.53033Z" fill="#6A6A6A"/>
</svg>
