<svg width="21" height="21" viewBox="0 0 21 21" fill="none" xmlns="http://www.w3.org/2000/svg">
<path fill-rule="evenodd" clip-rule="evenodd" d="M5.28099 4.22041C4.98811 3.92751 4.51323 3.92751 4.22033 4.22039C3.92744 4.51328 3.92743 4.98816 4.22032 5.28105L9.43937 10.5003L4.22072 15.7191C3.92783 16.012 3.92784 16.4869 4.22074 16.7798C4.51363 17.0726 4.98851 17.0726 5.2814 16.7797L10.5 11.5609L15.7186 16.7797C16.0115 17.0726 16.4864 17.0726 16.7793 16.7798C17.0722 16.4869 17.0722 16.012 16.7793 15.7191L11.5607 10.5003L16.7797 5.28105C17.0726 4.98816 17.0726 4.51328 16.7797 4.22039C16.4868 3.92751 16.0119 3.92751 15.719 4.22041L10.5 9.43959L5.28099 4.22041Z" fill="#6A6A6A"/>
</svg>
