<svg width="51" height="50" viewBox="0 0 51 50" fill="none" xmlns="http://www.w3.org/2000/svg">
<rect x="0.772705" y="0.113632" width="49.7727" height="49.7727" rx="24.8864" fill="#E5E5E4"/>
<path fill-rule="evenodd" clip-rule="evenodd" d="M34.3126 20.593C34.6001 20.8912 34.5915 21.366 34.2933 21.6535L25.7929 29.8503C25.0376 30.5787 23.8412 30.5787 23.0858 29.8503L19.2521 26.1535C18.9539 25.866 18.9453 25.3912 19.2328 25.093C19.5203 24.7949 19.9951 24.7862 20.2933 25.0738L24.127 28.7705C24.3013 28.9386 24.5774 28.9386 24.7517 28.7705L33.2521 20.5737C33.5503 20.2862 34.0251 20.2949 34.3126 20.593Z" fill="#393C3C"/>
<path fill-rule="evenodd" clip-rule="evenodd" d="M34.8566 13.0077C32.0419 11.3848 29.8664 10.6136 26.7727 10.6136C23.679 10.6136 21.5028 11.3849 18.6882 13.0077C17.6418 13.611 16.569 14.2178 15.6174 14.7512C14.1706 15.5621 13.2727 17.0824 13.2727 18.7258L13.2727 29.8993C13.2728 31.129 13.7747 32.3023 14.663 33.147C16.0932 34.5069 18.0277 36.3402 19.2929 37.514C21.4356 39.5021 23.9214 41.1136 26.7727 41.1136C29.7144 41.1136 32.2078 39.9085 34.7447 37.5212C36.2348 36.119 37.9032 34.3953 39.0956 33.1356C39.8536 32.3348 40.2727 31.2627 40.2727 30.1369V18.7263C40.2727 17.0827 39.3747 15.5622 37.9277 14.7512C36.9759 14.2178 35.903 13.611 34.8566 13.0077ZM11.7727 29.8993C11.7728 31.538 12.4418 33.1048 13.6294 34.234C15.059 35.5935 16.9999 37.4327 18.2726 38.6136C20.4997 40.68 23.3433 42.6136 26.7727 42.6136C30.2021 42.6136 33.0454 41.18 35.7727 38.6136C37.2948 37.1813 38.9869 35.4326 40.185 34.1667C41.2146 33.079 41.7727 31.6346 41.7727 30.1369V18.7263C41.7727 16.5324 40.5749 14.5153 38.661 13.4427C37.7127 12.9112 36.6454 12.3076 35.6058 11.7082C32.6359 9.99582 30.2021 9.11363 26.7727 9.11363C23.3433 9.11363 20.9089 9.99582 17.939 11.7082C16.8994 12.3076 15.8322 12.9112 14.8839 13.4427C12.9704 14.5153 11.7727 16.5322 11.7727 18.7258L11.7727 29.8993Z" fill="#393C3C"/>
</svg>
