<svg width="33" height="37" viewBox="0 0 33 37" fill="none" xmlns="http://www.w3.org/2000/svg">
<path fill-rule="evenodd" clip-rule="evenodd" d="M9.89141 12.3872C9.65141 12.3872 9.29141 12.5072 9.17141 12.7472C8.69141 13.2272 8.69141 13.8272 9.17141 14.3072L13.7314 18.8672L9.05141 23.5472C8.57141 24.0272 8.57141 24.6272 9.05141 25.1072C9.53141 25.5872 10.1314 25.5872 10.6114 25.1072L16.0114 19.7072C16.4914 19.2272 16.4914 18.6272 16.0114 18.1472L10.6114 12.7472C10.3714 12.6272 10.1314 12.3872 9.89141 12.3872Z" fill="#A6A5A5"/>
<path fill-rule="evenodd" clip-rule="evenodd" d="M17.5711 12.3872C17.3311 12.3872 16.9711 12.5072 16.8511 12.7472C16.3711 13.2272 16.3711 13.8272 16.8511 14.3072L21.4111 18.8672L16.7311 23.5472C16.2511 24.0272 16.2511 24.6272 16.7311 25.1072C17.2111 25.5872 17.8111 25.5872 18.2911 25.1072L23.6911 19.7072C24.1711 19.2272 24.1711 18.6272 23.6911 18.1472L18.2911 12.7472C18.0511 12.6272 17.8111 12.3872 17.5711 12.3872Z" fill="#A6A5A5"/>
</svg>
