<svg width="33" height="37" viewBox="0 0 33 37" fill="none" xmlns="http://www.w3.org/2000/svg">
<path fill-rule="evenodd" clip-rule="evenodd" d="M23.1105 12.3872C23.3505 12.3872 23.7105 12.5072 23.8305 12.7472C24.3105 13.2272 24.3105 13.8272 23.8305 14.3072L19.2705 18.8672L23.9505 23.5472C24.4305 24.0272 24.4305 24.6272 23.9505 25.1072C23.4705 25.5872 22.8705 25.5872 22.3905 25.1072L16.9905 19.7072C16.5105 19.2272 16.5105 18.6272 16.9905 18.1472L22.3905 12.7472C22.6305 12.6272 22.8705 12.3872 23.1105 12.3872Z" fill="#A6A5A5"/>
<path fill-rule="evenodd" clip-rule="evenodd" d="M15.4309 12.3872C15.6709 12.3872 16.0309 12.5072 16.1509 12.7472C16.6309 13.2272 16.6309 13.8272 16.1509 14.3072L11.5909 18.8672L16.2709 23.5472C16.7509 24.0272 16.7509 24.6272 16.2709 25.1072C15.7909 25.5872 15.1909 25.5872 14.7109 25.1072L9.31086 19.7072C8.83086 19.2272 8.83086 18.6272 9.31086 18.1472L14.7109 12.7472C14.9509 12.6272 15.1909 12.3872 15.4309 12.3872Z" fill="#A6A5A5"/>
</svg>
