<svg width="78" height="96" viewBox="0 0 78 96" fill="none" xmlns="http://www.w3.org/2000/svg">
<g filter="url(#filter0_d_548_1087)">
<path fill-rule="evenodd" clip-rule="evenodd" d="M18.4994 0C14.3576 0 11 3.35758 11 7.49936V66.2295C11 70.3712 14.3576 73.7288 18.4994 73.7288H57.0135C61.1553 73.7288 64.5129 70.3712 64.5129 66.2294V20.4084L41.9186 0.000720008H57.1185C57.0835 0.000240523 57.0485 0 57.0135 0H18.4994Z" fill="#F1F1F1"/>
<g filter="url(#filter1_d_548_1087)">
<path d="M41.6784 0.000125885V12.9085C41.6784 17.0503 45.036 20.4079 49.1778 20.4079H64.2727L41.6784 0.000125885Z" fill="#E5E5E4"/>
</g>
</g>
<path d="M22.1172 38V26.6875H26.3672C28.9609 26.6875 30.3516 28.2656 30.3516 30.4375C30.3516 32.6094 28.9453 34.1719 26.3359 34.1719H24.1484V38H22.1172ZM24.1484 32.5H26.0547C27.5859 32.5 28.2734 31.6406 28.2734 30.4375C28.2734 29.2188 27.5859 28.3906 26.0547 28.3906H24.1484V32.5ZM41.2891 26.6875V38H39.4766L34.1172 30.2656H34.0234V38H31.9922V26.6875H33.8359L39.1641 34.4219H39.2734V26.6875H41.2891ZM50.9609 30.2969C50.6016 29.0938 49.6641 28.3594 48.2891 28.3594C46.4609 28.3594 45.1484 29.7812 45.1484 32.3281C45.1484 34.9062 46.4453 36.3281 48.3359 36.3281C50.0391 36.3281 51.1328 35.2969 51.1641 33.6875H48.5391V32.0781H53.1328V33.4375C53.1328 36.3438 51.1328 38.1562 48.3359 38.1562C45.2109 38.1562 43.1016 35.9375 43.1016 32.3438C43.1016 28.7188 45.3047 26.5312 48.2734 26.5312C50.7734 26.5312 52.6953 28.0781 53.0391 30.2969H50.9609Z" fill="#393C3C"/>
<path d="M23.0625 57V45.6875H27.3125C29.9062 45.6875 31.2969 47.2656 31.2969 49.4375C31.2969 51.6094 29.8906 53.1719 27.2812 53.1719H25.0938V57H23.0625ZM25.0938 51.5H27C28.5312 51.5 29.2188 50.6406 29.2188 49.4375C29.2188 48.2188 28.5312 47.3906 27 47.3906H25.0938V51.5ZM36.7812 57H32.9375V45.6875H36.8438C40.2188 45.6875 42.2656 47.8125 42.2656 51.3281C42.2656 54.8594 40.2188 57 36.7812 57ZM34.9688 55.2344H36.6719C39.0312 55.2344 40.2344 53.9375 40.2344 51.3281C40.2344 48.7344 39.0312 47.4531 36.7344 47.4531H34.9688V55.2344ZM44.0625 57V45.6875H51.3125V47.3906H46.0938V50.4844H50.8125V52.1875H46.0938V57H44.0625Z" fill="#393C3C"/>
<circle cx="64.0849" cy="73.7287" r="13.2712" fill="#898989"/>
<path d="M60.9879 72.2543L62.7101 69.6709C63.2938 68.7954 64.5803 68.7954 65.164 69.6709L66.8862 72.2543" stroke="#393C3C" stroke-width="1.17966" stroke-linecap="round"/>
<path fill-rule="evenodd" clip-rule="evenodd" d="M59.3657 74.4661C59.3657 74.1403 59.1016 73.8763 58.7759 73.8763C58.4501 73.8763 58.1861 74.1403 58.1861 74.4661C58.1861 75.1059 58.3568 76.0601 58.8914 76.8739C59.4469 77.7194 60.3852 78.3902 61.8181 78.3902H61.8323H61.8465H61.8606H61.8747H61.8887H61.9026H61.9165H61.9304H61.9441H61.9579H61.9715H61.9851H61.9987H62.0122H62.0256H62.039H62.0523H62.0656H62.0788H62.092H62.1051H62.1182H62.1312H62.1441H62.157H62.1698H62.1826H62.1953H62.208H62.2206H62.2332H62.2457H62.2581H62.2705H62.2829H62.2952H62.3074H62.3196H62.3317H62.3438H62.3558H62.3678H62.3797H62.3916H62.4034H62.4151H62.4268H62.4385H62.4501H62.4616H62.4731H62.4846H62.496H62.5073H62.5186H62.5298H62.541H62.5522H62.5632H62.5743H62.5852H62.5962H62.6071H62.6179H62.6287H62.6394H62.6501H62.6607H62.6712H62.6818H62.6922H62.7027H62.713H62.7234H62.7336H62.7439H62.754H62.7641H62.7742H62.7842H62.7942H62.8041H62.814H62.8238H62.8336H62.8434H62.853H62.8627H62.8723H62.8818H62.8913H62.9007H62.9101H62.9195H62.9287H62.938H62.9472H62.9563H62.9655H62.9745H62.9835H62.9925H63.0014H63.0103H63.0191H63.0279H63.0366H63.0453H63.0539H63.0625H63.071H63.0795H63.088H63.0964H63.1048H63.1131H63.1213H63.1296H63.1377H63.1459H63.154H63.162H63.17H63.1779H63.1858H63.1937H63.2015H63.2093H63.217H63.2247H63.2323H63.2399H63.2475H63.255H63.2624H63.2699H63.2772H63.2846H63.2919H63.2991H63.3063H63.3135H63.3206H63.3276H63.3347H63.3417H63.3486H63.3555H63.3624H63.3692H63.376H63.3827H63.3894H63.396H63.4026H63.4092H63.4157H63.4222H63.4286H63.435H63.4414H63.4477H63.454H63.4602H63.4664H63.4725H63.4787H63.4847H63.4908H63.4967H63.5027H63.5086H63.5145H63.5203H63.5261H63.5318H63.5375H63.5432H63.5488H63.5544H63.56H63.5655H63.571H63.5764H63.5818H63.5872H63.5925H63.5978H63.603H63.6082H63.6134H63.6185H63.6236H63.6286H63.6336H63.6386H63.6435H63.6484H63.6533H63.6581H63.6629H63.6677H63.6724H63.677H63.6817H63.6863H63.6908H63.6954H63.6999H63.7043H63.7087H63.7131H63.7175H63.7218H63.7261H63.7303H63.7345H63.7387H63.7428H63.7469H63.7509H63.755H63.759H63.7629H63.7668H63.7707H63.7746H63.7784H63.7822H63.7859H63.7896H63.7933H63.797H63.8006H63.8041H63.8077H63.8112H63.8147H63.8181H63.8215H63.8249H63.8282H63.8316H63.8348H63.8381H63.8413H63.8445H63.8463H63.8467H63.8468H63.8468H63.8468H63.8468H63.8469H63.8469H63.8469H63.847H63.847H63.8471H63.8472H63.8472H63.8473H63.8473H63.8475H63.8475H63.8476H63.8477H63.8477H63.8479H63.8479H63.8481H63.8481H63.8482H63.8483H63.8484H63.8486H63.8486H63.8489H63.8489H63.8492H63.8492H63.8496H63.8496H63.8499H63.8499H63.8502H63.8503H63.8503H63.8506H63.8507H63.8507H63.851H63.8512H63.8515H63.8516H63.8519H63.8521H63.8522H63.8523H63.8526H63.8528H63.8531H63.8533H63.8537H63.8538H63.8538H63.8541H63.8543H63.8544H63.8548H63.8549H63.8555H63.856H63.8561H63.8561H63.8566H63.8568H63.8568H63.8573H63.8575H63.8579H63.858H63.8582H63.8586H63.8589H63.8592H63.8597H63.8599H63.8599H63.86H63.8605H63.8606H63.8613H63.8613H63.8619H63.8621H63.8621H63.8628H63.8628H63.863H63.8636H63.8638H63.8638H63.8644H63.8648H63.8652H63.8657H63.8657H63.8658H63.866H63.8666H63.8669H63.8676H63.8676H63.8677H63.8686H63.8686H63.8687H63.8695H63.8695H63.8697H63.8704H63.8707H63.8713H63.8714H63.8716H63.8718H63.8722H63.8729H63.8732H63.8733H63.8741H63.8742H63.8745H63.8751H63.8752H63.8752H63.8761H63.8764H63.8771H63.8771H63.8773H63.8776H63.8782H63.8789H63.8789H63.8792H63.8801H63.8801H63.8803H63.8808H63.8813H63.8814H63.8824H63.8827H63.8827H63.8828H63.8835H63.8841H63.8845H63.8846H63.8854H63.8856H63.8858H63.8863H63.8868H63.8869H63.8881H63.8882H63.8883H63.8883H63.8893H63.8897H63.89H63.8904H63.8909H63.8912H63.8916H63.8918H63.8927H63.8929H63.8936H63.8941H63.8942H63.8953H63.8954H63.8958H63.8962H63.8966H63.8971H63.8974H63.8979H63.8988H63.8989H63.899H63.8991H63.9004H63.9006H63.9007H63.9013H63.9017H63.9023H63.9024H63.9031H63.9038H63.904H63.9042H63.9044H63.9057H63.9058H63.9059H63.9063H63.9071H63.9075H63.9076H63.9085H63.9087H63.9093H63.9094H63.9099H63.9111H63.9111H63.9112H63.9113H63.9127H63.9128H63.9129H63.9136H63.9141H63.9145H63.9148H63.9155H63.9159H63.9161H63.9167H63.917H63.9178H63.9183H63.9184H63.9186H63.9195H63.9199H63.9205H63.9206H63.9211H63.9214H63.9225H63.9227H63.9228H63.9229H63.9244H63.9244H63.9245H63.9251H63.9259H63.926H63.9266H63.9273H63.9275H63.9276H63.9286H63.929H63.9292H63.9295H63.9305H63.9307H63.9308H63.9316H63.9321H63.9324H63.9328H63.9337H63.9337H63.9339H63.935H63.9353H63.9355H63.9358H63.9369H63.937H63.9372H63.9379H63.9385H63.9385H63.9394H63.9399H63.9401H63.9401H63.9416H63.9416H63.9417H63.942H63.9431H63.9434H63.9439H63.9439H63.9445H63.945H63.9459H63.946H63.9462H63.9467H63.9475H63.9478H63.9483H63.9485H63.9489H63.9497H63.95H63.9504H63.9509H63.9516H63.9517H63.9518H63.9532H63.9533H63.9534H63.9534H63.9546H63.9551H63.9552H63.9557H63.956H63.9568H63.957H63.9574H63.9582H63.9585H63.9587H63.9587H63.9601H63.9603H63.9605H63.9607H63.9614H63.962H63.9622H63.9627H63.9632H63.9638H63.9638H63.964H63.9653H63.9655H63.9655H63.9657H63.9666H63.9671H63.9673H63.9679H63.9683H63.9687H63.9691H63.9691H63.9702H63.9704H63.9709H63.9716H63.9718H63.9727H63.9728H63.9733H63.9735H63.974H63.9745H63.9748H63.9752H63.9762H63.9762H63.9763H63.9764H63.9775H63.9776H63.9781H63.9787H63.9789H63.979H63.9798H63.98H63.9804H63.9809H63.9816H63.9817H63.9818H63.982H63.9831H63.9831H63.9837H63.9842H63.9843H63.9844H63.9853H63.9855H63.9856H63.9863H63.9869H63.9872H63.9873H63.9874H63.9881H63.9883H63.9893H63.9893H63.9893H63.99H63.9903H63.9904H63.9911H63.9913H63.9915H63.9922H63.9927H63.9929H63.993H63.9932H63.9937H63.9941H63.9948H63.9949H63.995H63.9957H63.9958H63.9959H63.9967H63.9968H63.9968H63.9976H63.9978H63.9984H63.9987H63.9987H63.9988H63.9993H63.9997H64.0001H64.0006H64.0006H64.0009H64.0015H64.0016H64.0016H64.0024H64.0024H64.0026H64.0031H64.0032H64.0038H64.004H64.0045H64.0046H64.0046H64.0048H64.0052H64.0056H64.0059H64.0063H64.0064H64.0066H64.007H64.0072H64.0076H64.0077H64.0078H64.0084H64.0084H64.0084H64.009H64.0096H64.0096H64.0101H64.0102H64.0103H64.0106H64.0107H64.0108H64.0112H64.0113H64.0116H64.0119H64.0121H64.0123H64.0124H64.0126H64.0128H64.013H64.0133H64.0134H64.0137H64.0137H64.0138H64.0141H64.0142H64.0143H64.0145H64.0146H64.0149H64.0149H64.0152H64.0152H64.0155H64.0155H64.0158H64.0158H64.0161H64.0161H64.0162H64.0163H64.0164H64.0166H64.0166H64.0168H64.0168H64.0169H64.017H64.017H64.0171H64.0172H64.0173H64.0173H64.0174H64.0174H64.0175H64.0175H64.0176H64.0176H64.0177H64.0177H64.0177H64.0177H64.0177H64.0182H64.02H64.0232H64.0264H64.0296H64.0329H64.0362H64.0396H64.0429H64.0463H64.0498H64.0533H64.0568H64.0603H64.0639H64.0675H64.0712H64.0748H64.0785H64.0823H64.0861H64.0899H64.0937H64.0976H64.1015H64.1055H64.1095H64.1135H64.1176H64.1217H64.1258H64.13H64.1342H64.1384H64.1427H64.147H64.1513H64.1557H64.1601H64.1646H64.1691H64.1736H64.1782H64.1828H64.1874H64.1921H64.1968H64.2016H64.2063H64.2112H64.216H64.2209H64.2259H64.2308H64.2358H64.2409H64.246H64.2511H64.2563H64.2615H64.2667H64.272H64.2773H64.2827H64.2881H64.2935H64.299H64.3045H64.31H64.3156H64.3212H64.3269H64.3326H64.3384H64.3442H64.35H64.3559H64.3618H64.3677H64.3737H64.3797H64.3858H64.3919H64.3981H64.4043H64.4105H64.4168H64.4231H64.4294H64.4358H64.4423H64.4488H64.4553H64.4618H64.4684H64.4751H64.4818H64.4885H64.4953H64.5021H64.509H64.5159H64.5228H64.5298H64.5368H64.5439H64.551H64.5582H64.5654H64.5726H64.5799H64.5872H64.5946H64.602H64.6095H64.617H64.6245H64.6321H64.6398H64.6474H64.6552H64.6629H64.6708H64.6786H64.6865H64.6945H64.7025H64.7105H64.7186H64.7267H64.7349H64.7431H64.7514H64.7597H64.7681H64.7765H64.7849H64.7934H64.802H64.8106H64.8192H64.8279H64.8366H64.8454H64.8542H64.8631H64.872H64.8809H64.89H64.899H64.9081H64.9173H64.9265H64.9357H64.945H64.9544H64.9637H64.9732H64.9827H64.9922H65.0018H65.0114H65.0211H65.0308H65.0406H65.0504H65.0603H65.0702H65.0802H65.0902H65.1003H65.1104H65.1206H65.1308H65.1411H65.1514H65.1618H65.1722H65.1827H65.1932H65.2038H65.2144H65.2251H65.2358H65.2466H65.2574H65.2683H65.2792H65.2902H65.3012H65.3123H65.3234H65.3346H65.3459H65.3572H65.3685H65.3799H65.3913H65.4028H65.4144H65.426H65.4376H65.4493H65.4611H65.4729H65.4848H65.4967H65.5087H65.5207H65.5328H65.5449H65.5571H65.5693H65.5816H65.5939H65.6063H65.6188H65.6313H65.6439H65.6565H65.6691H65.6819H65.6946H65.7075H65.7204H65.7333H65.7463H65.7594H65.7725H65.7856H65.7988H65.8121H65.8254H65.8388H65.8523H65.8658H65.8793H65.8929H65.9066H65.9203H65.9341H65.9479H65.9618H65.9758H65.9898H66.0038H66.0179H66.0321H66.0464C67.4792 78.3902 68.4176 77.7194 68.9731 76.8739C69.5077 76.0601 69.6784 75.1059 69.6784 74.4661C69.6784 74.1403 69.4143 73.8763 69.0886 73.8763C68.7628 73.8763 68.4987 74.1403 68.4987 74.4661C68.4987 74.9377 68.3652 75.6507 67.9872 76.2262C67.63 76.7698 67.0472 77.2105 66.0464 77.2105H66.0321H66.0179H66.0038H65.9898H65.9758H65.9618H65.9479H65.9341H65.9203H65.9066H65.8929H65.8793H65.8658H65.8523H65.8388H65.8254H65.8121H65.7988H65.7856H65.7725H65.7594H65.7463H65.7333H65.7204H65.7075H65.6946H65.6819H65.6691H65.6565H65.6439H65.6313H65.6188H65.6063H65.5939H65.5816H65.5693H65.5571H65.5449H65.5328H65.5207H65.5087H65.4967H65.4848H65.4729H65.4611H65.4493H65.4376H65.426H65.4144H65.4028H65.3913H65.3799H65.3685H65.3572H65.3459H65.3346H65.3234H65.3123H65.3012H65.2902H65.2792H65.2683H65.2574H65.2466H65.2358H65.2251H65.2144H65.2038H65.1932H65.1827H65.1722H65.1618H65.1514H65.1411H65.1308H65.1206H65.1104H65.1003H65.0902H65.0802H65.0702H65.0603H65.0504H65.0406H65.0308H65.0211H65.0114H65.0018H64.9922H64.9827H64.9732H64.9637H64.9544H64.945H64.9357H64.9265H64.9173H64.9081H64.899H64.89H64.8809H64.872H64.8631H64.8542H64.8454H64.8366H64.8279H64.8192H64.8106H64.802H64.7934H64.7849H64.7765H64.7681H64.7597H64.7514H64.7431H64.7349H64.7267H64.7186H64.7105H64.7025H64.6945H64.6865H64.6786H64.6708H64.6629H64.6552H64.6474H64.6398H64.6321H64.6245H64.617H64.6095H64.602H64.5946H64.5872H64.5799H64.5726H64.5654H64.5582H64.551H64.5439H64.5368H64.5298H64.5228H64.5159H64.509H64.5021H64.4953H64.4885H64.4818H64.4751H64.4684H64.4618H64.4553H64.4488H64.4423H64.4358H64.4294H64.4231H64.4168H64.4105H64.4043H64.3981H64.3919H64.3858H64.3797H64.3737H64.3677H64.3618H64.3559H64.35H64.3442H64.3384H64.3326H64.3269H64.3212H64.3156H64.31H64.3045H64.299H64.2935H64.2881H64.2827H64.2773H64.272H64.2667H64.2615H64.2563H64.2511H64.246H64.2409H64.2358H64.2308H64.2259H64.2209H64.216H64.2112H64.2063H64.2016H64.1968H64.1921H64.1874H64.1828H64.1782H64.1736H64.1691H64.1646H64.1601H64.1557H64.1513H64.147H64.1427H64.1384H64.1342H64.13H64.1258H64.1217H64.1176H64.1135H64.1095H64.1055H64.1015H64.0976H64.0937H64.0899H64.0861H64.0823H64.0785H64.0748H64.0712H64.0675H64.0639H64.0603H64.0568H64.0533H64.0498H64.0463H64.0429H64.0396H64.0362H64.0329H64.0296H64.0264H64.0232H64.02H64.0182H64.0177H64.0177H64.0177H64.0177H64.0177H64.0176H64.0176H64.0175H64.0175H64.0174H64.0174H64.0173H64.0173H64.0172H64.0171H64.017H64.017H64.0169H64.0168H64.0168H64.0166H64.0166H64.0164H64.0163H64.0162H64.0161H64.0161H64.0158H64.0158H64.0155H64.0155H64.0152H64.0152H64.0149H64.0149H64.0146H64.0145H64.0143H64.0142H64.0141H64.0138H64.0137H64.0137H64.0134H64.0133H64.013H64.0128H64.0126H64.0124H64.0123H64.0121H64.0119H64.0116H64.0113H64.0112H64.0108H64.0107H64.0106H64.0103H64.0102H64.0101H64.0096H64.0096H64.009H64.0084H64.0084H64.0084H64.0078H64.0077H64.0076H64.0072H64.007H64.0066H64.0064H64.0063H64.0059H64.0056H64.0052H64.0048H64.0046H64.0046H64.0045H64.004H64.0038H64.0032H64.0031H64.0026H64.0024H64.0024H64.0016H64.0016H64.0015H64.0009H64.0006H64.0006H64.0001H63.9997H63.9993H63.9988H63.9987H63.9987H63.9984H63.9978H63.9976H63.9968H63.9968H63.9967H63.9959H63.9958H63.9957H63.995H63.9949H63.9948H63.9941H63.9937H63.9932H63.993H63.9929H63.9927H63.9922H63.9915H63.9913H63.9911H63.9904H63.9903H63.99H63.9893H63.9893H63.9893H63.9883H63.9881H63.9874H63.9873H63.9872H63.9869H63.9863H63.9856H63.9855H63.9853H63.9844H63.9843H63.9842H63.9837H63.9831H63.9831H63.982H63.9818H63.9817H63.9816H63.9809H63.9804H63.98H63.9798H63.979H63.9789H63.9787H63.9781H63.9776H63.9775H63.9764H63.9763H63.9762H63.9762H63.9752H63.9748H63.9745H63.974H63.9735H63.9733H63.9728H63.9727H63.9718H63.9716H63.9709H63.9704H63.9702H63.9691H63.9691H63.9687H63.9683H63.9679H63.9673H63.9671H63.9666H63.9657H63.9655H63.9655H63.9653H63.964H63.9638H63.9638H63.9632H63.9627H63.9622H63.962H63.9614H63.9607H63.9605H63.9603H63.9601H63.9587H63.9587H63.9585H63.9582H63.9574H63.957H63.9568H63.956H63.9557H63.9552H63.9551H63.9546H63.9534H63.9534H63.9533H63.9532H63.9518H63.9517H63.9516H63.9509H63.9504H63.95H63.9497H63.9489H63.9485H63.9483H63.9478H63.9475H63.9467H63.9462H63.946H63.9459H63.945H63.9445H63.9439H63.9439H63.9434H63.9431H63.942H63.9417H63.9416H63.9416H63.9401H63.9401H63.9399H63.9394H63.9385H63.9385H63.9379H63.9372H63.937H63.9369H63.9358H63.9355H63.9353H63.935H63.9339H63.9337H63.9337H63.9328H63.9324H63.9321H63.9316H63.9308H63.9307H63.9305H63.9295H63.9292H63.929H63.9286H63.9276H63.9275H63.9273H63.9266H63.926H63.9259H63.9251H63.9245H63.9244H63.9244H63.9229H63.9228H63.9227H63.9225H63.9214H63.9211H63.9206H63.9205H63.9199H63.9195H63.9186H63.9184H63.9183H63.9178H63.917H63.9167H63.9161H63.9159H63.9155H63.9148H63.9145H63.9141H63.9136H63.9129H63.9128H63.9127H63.9113H63.9112H63.9111H63.9111H63.9099H63.9094H63.9093H63.9087H63.9085H63.9076H63.9075H63.9071H63.9063H63.9059H63.9058H63.9057H63.9044H63.9042H63.904H63.9038H63.9031H63.9024H63.9023H63.9017H63.9013H63.9007H63.9006H63.9004H63.8991H63.899H63.8989H63.8988H63.8979H63.8974H63.8971H63.8966H63.8962H63.8958H63.8954H63.8953H63.8942H63.8941H63.8936H63.8929H63.8927H63.8918H63.8916H63.8912H63.8909H63.8904H63.89H63.8897H63.8893H63.8883H63.8883H63.8882H63.8881H63.8869H63.8868H63.8863H63.8858H63.8856H63.8854H63.8846H63.8845H63.8841H63.8835H63.8828H63.8827H63.8827H63.8824H63.8814H63.8813H63.8808H63.8803H63.8801H63.8801H63.8792H63.8789H63.8789H63.8782H63.8776H63.8773H63.8771H63.8771H63.8764H63.8761H63.8752H63.8752H63.8751H63.8745H63.8742H63.8741H63.8733H63.8732H63.8729H63.8722H63.8718H63.8716H63.8714H63.8713H63.8707H63.8704H63.8697H63.8695H63.8695H63.8687H63.8686H63.8686H63.8677H63.8676H63.8676H63.8669H63.8666H63.866H63.8658H63.8657H63.8657H63.8652H63.8648H63.8644H63.8638H63.8638H63.8636H63.863H63.8628H63.8628H63.8621H63.8621H63.8619H63.8613H63.8613H63.8606H63.8605H63.86H63.8599H63.8599H63.8597H63.8592H63.8589H63.8586H63.8582H63.858H63.8579H63.8575H63.8573H63.8568H63.8568H63.8566H63.8561H63.8561H63.856H63.8555H63.8549H63.8548H63.8544H63.8543H63.8541H63.8538H63.8538H63.8537H63.8533H63.8531H63.8528H63.8526H63.8523H63.8522H63.8521H63.8519H63.8516H63.8515H63.8512H63.851H63.8507H63.8507H63.8506H63.8503H63.8503H63.8502H63.8499H63.8499H63.8496H63.8496H63.8492H63.8492H63.8489H63.8489H63.8486H63.8486H63.8484H63.8483H63.8482H63.8481H63.8481H63.8479H63.8479H63.8477H63.8477H63.8476H63.8475H63.8475H63.8473H63.8473H63.8472H63.8472H63.8471H63.847H63.847H63.8469H63.8469H63.8469H63.8468H63.8468H63.8468H63.8468H63.8467H63.8463H63.8445H63.8413H63.8381H63.8348H63.8316H63.8282H63.8249H63.8215H63.8181H63.8147H63.8112H63.8077H63.8041H63.8006H63.797H63.7933H63.7896H63.7859H63.7822H63.7784H63.7746H63.7707H63.7668H63.7629H63.759H63.755H63.7509H63.7469H63.7428H63.7387H63.7345H63.7303H63.7261H63.7218H63.7175H63.7131H63.7087H63.7043H63.6999H63.6954H63.6908H63.6863H63.6817H63.677H63.6724H63.6677H63.6629H63.6581H63.6533H63.6484H63.6435H63.6386H63.6336H63.6286H63.6236H63.6185H63.6134H63.6082H63.603H63.5978H63.5925H63.5872H63.5818H63.5764H63.571H63.5655H63.56H63.5544H63.5488H63.5432H63.5375H63.5318H63.5261H63.5203H63.5145H63.5086H63.5027H63.4967H63.4908H63.4847H63.4787H63.4725H63.4664H63.4602H63.454H63.4477H63.4414H63.435H63.4286H63.4222H63.4157H63.4092H63.4026H63.396H63.3894H63.3827H63.376H63.3692H63.3624H63.3555H63.3486H63.3417H63.3347H63.3276H63.3206H63.3135H63.3063H63.2991H63.2919H63.2846H63.2772H63.2699H63.2624H63.255H63.2475H63.2399H63.2323H63.2247H63.217H63.2093H63.2015H63.1937H63.1858H63.1779H63.17H63.162H63.154H63.1459H63.1377H63.1296H63.1213H63.1131H63.1048H63.0964H63.088H63.0795H63.071H63.0625H63.0539H63.0453H63.0366H63.0279H63.0191H63.0103H63.0014H62.9925H62.9835H62.9745H62.9655H62.9563H62.9472H62.938H62.9287H62.9195H62.9101H62.9007H62.8913H62.8818H62.8723H62.8627H62.853H62.8434H62.8336H62.8238H62.814H62.8041H62.7942H62.7842H62.7742H62.7641H62.754H62.7439H62.7336H62.7234H62.713H62.7027H62.6922H62.6818H62.6712H62.6607H62.6501H62.6394H62.6287H62.6179H62.6071H62.5962H62.5852H62.5743H62.5632H62.5522H62.541H62.5298H62.5186H62.5073H62.496H62.4846H62.4731H62.4616H62.4501H62.4385H62.4268H62.4151H62.4034H62.3916H62.3797H62.3678H62.3558H62.3438H62.3317H62.3196H62.3074H62.2952H62.2829H62.2705H62.2581H62.2457H62.2332H62.2206H62.208H62.1953H62.1826H62.1698H62.157H62.1441H62.1312H62.1182H62.1051H62.092H62.0788H62.0656H62.0523H62.039H62.0256H62.0122H61.9987H61.9851H61.9715H61.9579H61.9441H61.9304H61.9165H61.9026H61.8887H61.8747H61.8606H61.8465H61.8323H61.8181C60.8172 77.2105 60.2345 76.7698 59.8773 76.2262C59.4993 75.6507 59.3657 74.9377 59.3657 74.4661Z" fill="#393C3C"/>
<path d="M63.3472 75.2034C63.3472 75.5291 63.6113 75.7932 63.937 75.7932C64.2628 75.7932 64.5268 75.5291 64.5268 75.2034H63.3472ZM64.5268 75.2034V69.3051H63.3472V75.2034H64.5268Z" fill="#393C3C"/>
<defs>
<filter id="filter0_d_548_1087" x="0.309476" y="0" width="74.8939" height="95.1098" filterUnits="userSpaceOnUse" color-interpolation-filters="sRGB">
<feFlood flood-opacity="0" result="BackgroundImageFix"/>
<feColorMatrix in="SourceAlpha" type="matrix" values="0 0 0 0 0 0 0 0 0 0 0 0 0 0 0 0 0 0 127 0" result="hardAlpha"/>
<feOffset dy="10.6905"/>
<feGaussianBlur stdDeviation="5.34526"/>
<feComposite in2="hardAlpha" operator="out"/>
<feColorMatrix type="matrix" values="0 0 0 0 0 0 0 0 0 0 0 0 0 0 0 0 0 0 0.15 0"/>
<feBlend mode="normal" in2="BackgroundImageFix" result="effect1_dropShadow_548_1087"/>
<feBlend mode="normal" in="SourceGraphic" in2="effect1_dropShadow_548_1087" result="shape"/>
</filter>
<filter id="filter1_d_548_1087" x="33.5743" y="0.00012207" width="38.8025" height="36.6159" filterUnits="userSpaceOnUse" color-interpolation-filters="sRGB">
<feFlood flood-opacity="0" result="BackgroundImageFix"/>
<feColorMatrix in="SourceAlpha" type="matrix" values="0 0 0 0 0 0 0 0 0 0 0 0 0 0 0 0 0 0 127 0" result="hardAlpha"/>
<feOffset dy="8.10409"/>
<feGaussianBlur stdDeviation="4.05204"/>
<feComposite in2="hardAlpha" operator="out"/>
<feColorMatrix type="matrix" values="0 0 0 0 0 0 0 0 0 0 0 0 0 0 0 0 0 0 0.15 0"/>
<feBlend mode="normal" in2="BackgroundImageFix" result="effect1_dropShadow_548_1087"/>
<feBlend mode="normal" in="SourceGraphic" in2="effect1_dropShadow_548_1087" result="shape"/>
</filter>
</defs>
</svg>
