<svg width="38" height="47" viewBox="0 0 38 47" fill="none" xmlns="http://www.w3.org/2000/svg">
<g filter="url(#filter0_d_1946_4710)">
<path fill-rule="evenodd" clip-rule="evenodd" d="M9.66176 0C7.63942 0 6 1.63942 6 3.66175V32.3382C6 34.3606 7.63943 36 9.66176 36H28.4673C30.4896 36 32.129 34.3606 32.129 32.3382V3.66176C32.129 3.65721 32.129 3.65267 32.129 3.64814V9.96488L21.0968 0.000262256H28.5116C28.4968 8.75824e-05 28.4821 0 28.4673 0H9.66176Z" fill="#F1F1F1"/>
<g filter="url(#filter1_d_1946_4710)">
<path d="M20.9794 -2.28882e-05V6.30284C20.9794 8.32518 22.6188 9.9646 24.6412 9.9646H32.0117L20.9794 -2.28882e-05Z" fill="#E5E5E4"/>
</g>
</g>
<path d="M11.8717 12.7066H13.9469C14.3589 12.7066 14.7111 12.7842 15.0035 12.9393C15.296 13.0944 15.5172 13.3106 15.6673 13.5878C15.8173 13.8624 15.8923 14.1791 15.8923 14.5376C15.8923 14.8937 15.816 15.2103 15.6635 15.4875C15.5134 15.7621 15.2909 15.977 14.9959 16.1322C14.7009 16.2848 14.3461 16.361 13.9316 16.361H12.8635V18.2302H11.8717V12.7066ZM13.7943 15.5447C14.1554 15.5447 14.4262 15.4544 14.6068 15.2739C14.7874 15.0908 14.8776 14.8454 14.8776 14.5376C14.8776 14.2274 14.7874 13.9832 14.6068 13.8052C14.4262 13.6272 14.1554 13.5382 13.7943 13.5382H12.8635V15.5447H13.7943ZM21.2329 18.2302H20.3479L17.731 14.4537H17.6852V18.2302H16.6934V12.7066H17.5937L20.1953 16.4831H20.2487V12.7066H21.2329V18.2302ZM25.9554 14.469C25.8664 14.1714 25.7087 13.94 25.4824 13.7747C25.2586 13.6069 24.9814 13.5229 24.6508 13.5229C24.3507 13.5229 24.085 13.5992 23.8535 13.7518C23.6221 13.9019 23.4415 14.1231 23.3118 14.4156C23.1821 14.708 23.1173 15.0564 23.1173 15.4608C23.1173 15.8728 23.1821 16.2263 23.3118 16.5213C23.4415 16.8137 23.6234 17.0362 23.8573 17.1888C24.0913 17.3389 24.3634 17.4139 24.6737 17.4139C24.9483 17.4139 25.1887 17.3618 25.3946 17.2575C25.6006 17.1507 25.7609 17.0006 25.8753 16.8074C25.9897 16.6115 26.0495 16.3839 26.0546 16.1245H24.7729V15.3387H27.0159V16.0025C27.0159 16.4679 26.9154 16.8748 26.7145 17.2232C26.5162 17.569 26.2402 17.836 25.8867 18.0242C25.5332 18.2124 25.1289 18.3065 24.6737 18.3065C24.1676 18.3065 23.7213 18.1921 23.3347 17.9632C22.9482 17.7318 22.6481 17.4024 22.4345 16.9752C22.2234 16.548 22.1179 16.0457 22.1179 15.4684C22.1179 14.8911 22.2259 14.3889 22.4421 13.9616C22.6608 13.5318 22.9609 13.2025 23.3424 12.9736C23.7264 12.7448 24.16 12.6303 24.6432 12.6303C25.045 12.6303 25.4124 12.7079 25.7456 12.863C26.0787 13.0181 26.3521 13.2356 26.5657 13.5153C26.7794 13.7925 26.9142 14.1104 26.9701 14.469H25.9554Z" fill="#009857"/>
<path d="M12.0657 21.9839H14.1409C14.5528 21.9839 14.9051 22.0615 15.1975 22.2166C15.49 22.3718 15.7112 22.5879 15.8613 22.8651C16.0113 23.1398 16.0863 23.4564 16.0863 23.815C16.0863 24.171 16.01 24.4876 15.8575 24.7648C15.7074 25.0395 15.4849 25.2544 15.1899 25.4095C14.8949 25.5621 14.5401 25.6384 14.1256 25.6384H13.0575V27.5076H12.0657V21.9839ZM13.9883 24.8221C14.3494 24.8221 14.6202 24.7318 14.8008 24.5512C14.9814 24.3681 15.0716 24.1227 15.0716 23.815C15.0716 23.5047 14.9814 23.2606 14.8008 23.0826C14.6202 22.9046 14.3494 22.8155 13.9883 22.8155H13.0575V24.8221H13.9883ZM16.8874 27.5076V21.9839H18.7947C19.3415 21.9839 19.8133 22.0946 20.21 22.3158C20.6067 22.5345 20.9106 22.8511 21.1217 23.2657C21.3353 23.6802 21.4421 24.171 21.4421 24.7381C21.4421 25.3103 21.3353 25.805 21.1217 26.222C20.9081 26.6366 20.6003 26.9544 20.1985 27.1757C19.7967 27.3969 19.3186 27.5076 18.7642 27.5076H16.8874ZM18.7108 26.6455C19.2881 26.6455 19.7217 26.4865 20.0116 26.1686C20.3041 25.8507 20.4503 25.3739 20.4503 24.7381C20.4503 24.1074 20.3066 23.6344 20.0192 23.3191C19.7319 23.0037 19.3059 22.8461 18.7413 22.8461H17.8792V26.6455H18.7108ZM22.3195 21.9839H25.8595V22.8155H23.3113V24.3261H25.6153V25.1577H23.3113V27.5076H22.3195V21.9839Z" fill="#009857"/>
<defs>
<filter id="filter0_d_1946_4710" x="0.780075" y="0" width="36.5689" height="46.4398" filterUnits="userSpaceOnUse" color-interpolation-filters="sRGB">
<feFlood flood-opacity="0" result="BackgroundImageFix"/>
<feColorMatrix in="SourceAlpha" type="matrix" values="0 0 0 0 0 0 0 0 0 0 0 0 0 0 0 0 0 0 127 0" result="hardAlpha"/>
<feOffset dy="5.21992"/>
<feGaussianBlur stdDeviation="2.60996"/>
<feComposite in2="hardAlpha" operator="out"/>
<feColorMatrix type="matrix" values="0 0 0 0 0 0 0 0 0 0 0 0 0 0 0 0 0 0 0.15 0"/>
<feBlend mode="normal" in2="BackgroundImageFix" result="effect1_dropShadow_1946_4710"/>
<feBlend mode="normal" in="SourceGraphic" in2="effect1_dropShadow_1946_4710" result="shape"/>
</filter>
<filter id="filter1_d_1946_4710" x="17.0223" y="0" width="18.9463" height="17.8787" filterUnits="userSpaceOnUse" color-interpolation-filters="sRGB">
<feFlood flood-opacity="0" result="BackgroundImageFix"/>
<feColorMatrix in="SourceAlpha" type="matrix" values="0 0 0 0 0 0 0 0 0 0 0 0 0 0 0 0 0 0 127 0" result="hardAlpha"/>
<feOffset dy="3.95703"/>
<feGaussianBlur stdDeviation="1.97851"/>
<feComposite in2="hardAlpha" operator="out"/>
<feColorMatrix type="matrix" values="0 0 0 0 0 0 0 0 0 0 0 0 0 0 0 0 0 0 0.15 0"/>
<feBlend mode="normal" in2="BackgroundImageFix" result="effect1_dropShadow_1946_4710"/>
<feBlend mode="normal" in="SourceGraphic" in2="effect1_dropShadow_1946_4710" result="shape"/>
</filter>
</defs>
</svg>
