<svg xmlns="http://www.w3.org/2000/svg" width="24" height="24" viewBox="0 0 24 24" fill="none">
  <path fill-rule="evenodd" clip-rule="evenodd" d="M3.75 7.5C3.75 5.42893 5.42893 3.75 7.5 3.75H9.5C9.91421 3.75 10.25 4.08579 10.25 4.5C10.25 4.91421 9.91421 5.25 9.5 5.25H7.5C6.25736 5.25 5.25 6.25736 5.25 7.5V16.5C5.25 17.7426 6.25736 18.75 7.5 18.75H9.5C9.91421 18.75 10.25 19.0858 10.25 19.5C10.25 19.9142 9.91421 20.25 9.5 20.25H7.5C5.42893 20.25 3.75 18.5711 3.75 16.5V7.5Z" fill="#777777"/>
  <path fill-rule="evenodd" clip-rule="evenodd" d="M14.9697 7.46967C15.2626 7.17678 15.7374 7.17678 16.0303 7.46967L20.0303 11.4697C20.3232 11.7626 20.3232 12.2374 20.0303 12.5303L16.0303 16.5303C15.7374 16.8232 15.2626 16.8232 14.9697 16.5303C14.6768 16.2374 14.6768 15.7626 14.9697 15.4697L17.6893 12.75H9.5C9.08579 12.75 8.75 12.4142 8.75 12C8.75 11.5858 9.08579 11.25 9.5 11.25H17.6893L14.9697 8.53033C14.6768 8.23744 14.6768 7.76256 14.9697 7.46967Z" fill="#777777"/>
</svg>