<svg xmlns="http://www.w3.org/2000/svg" width="20" height="19" viewBox="0 0 20 19" fill="none">
  <circle cx="8.68613" cy="4.58872" r="3.90934" stroke="#777777" stroke-width="1.35875"/>
  <path d="M8.38075 11.2998H5C2.79086 11.2998 1 13.0907 1 15.2998V16.1514C1 16.7037 1.44772 17.1514 2 17.1514H8.41236" stroke="#777777" stroke-width="1.5" stroke-linecap="round"/>
  <path fill-rule="evenodd" clip-rule="evenodd" d="M14.6282 8.76245C15.0424 8.76245 15.3782 9.09824 15.3782 9.51245V10.5188C15.3782 10.5471 15.3766 10.5751 15.3736 10.6027C16.0138 10.7505 16.5823 11.0858 17.018 11.5477C17.0465 11.5262 17.0769 11.5065 17.1092 11.4888L17.991 11.004C18.354 10.8045 18.81 10.937 19.0096 11.3C19.2091 11.663 19.0766 12.119 18.7136 12.3186L17.8317 12.8033C17.8107 12.8149 17.7893 12.8253 17.7677 12.8347C17.861 13.1389 17.9112 13.4619 17.9112 13.7967C17.9112 14.1387 17.8588 14.4684 17.7616 14.7784C17.7901 14.7904 17.8182 14.8044 17.8457 14.8203L18.7172 15.3234C19.0759 15.5305 19.1988 15.9892 18.9917 16.3479C18.7846 16.7066 18.3259 16.8296 17.9672 16.6224L17.0957 16.1193C17.0639 16.1009 17.0339 16.0805 17.0058 16.0584C16.5689 16.5166 16.0007 16.8484 15.3615 16.9934C15.3724 17.0443 15.3782 17.0971 15.3782 17.1513V18.102C15.3782 18.5162 15.0424 18.852 14.6282 18.852C14.214 18.852 13.8782 18.5162 13.8782 18.102V17.1513C13.8782 17.0964 13.8841 17.0428 13.8953 16.9912C13.2547 16.8438 12.6858 16.5086 12.2496 16.0468C12.2248 16.0656 12.1985 16.0831 12.1708 16.099L11.2993 16.6022C10.9406 16.8093 10.4819 16.6864 10.2748 16.3277C10.0677 15.969 10.1906 15.5103 10.5493 15.3032L11.4208 14.8C11.4465 14.7852 11.4728 14.772 11.4994 14.7605C11.4057 14.4558 11.3554 14.1321 11.3554 13.7967C11.3554 13.4552 11.4076 13.1259 11.5044 12.8164C11.4809 12.8064 11.4577 12.7952 11.4348 12.7826L10.5529 12.2979C10.1899 12.0984 10.0574 11.6424 10.2569 11.2794C10.4565 10.9164 10.9125 10.7839 11.2755 10.9834L12.1573 11.4681C12.1939 11.4882 12.2281 11.5109 12.2598 11.5358C12.6918 11.0824 13.2524 10.7527 13.8831 10.605C13.8799 10.5767 13.8782 10.5479 13.8782 10.5188V9.51245C13.8782 9.09824 14.214 8.76245 14.6282 8.76245ZM14.6333 15.7158C15.6932 15.7158 16.5524 14.8566 16.5524 13.7967C16.5524 12.7367 15.6932 11.8775 14.6333 11.8775C13.5733 11.8775 12.7141 12.7367 12.7141 13.7967C12.7141 14.8566 13.5733 15.7158 14.6333 15.7158Z" fill="#777777"/>
</svg>