<svg xmlns="http://www.w3.org/2000/svg" width="50" height="50" viewBox="0 0 50 50" fill="none">
  <rect y="0.113632" width="49.7727" height="49.7727" rx="24.8864" fill="#E5E5E4"/>
  <path fill-rule="evenodd" clip-rule="evenodd" d="M16.2207 16.0853C16.2207 15.6711 16.5565 15.3353 16.9707 15.3353H33.2426C33.6568 15.3353 33.9926 15.6711 33.9926 16.0853C33.9926 16.4995 33.6568 16.8353 33.2426 16.8353H16.9707C16.5565 16.8353 16.2207 16.4995 16.2207 16.0853Z" fill="#535051"/>
  <path fill-rule="evenodd" clip-rule="evenodd" d="M16.2207 20.8705C16.2207 20.4563 16.5565 20.1205 16.9707 20.1205H29.4139C29.8281 20.1205 30.1639 20.4563 30.1639 20.8705C30.1639 21.2847 29.8281 21.6205 29.4139 21.6205H16.9707C16.5565 21.6205 16.2207 21.2847 16.2207 20.8705Z" fill="#535051"/>
  <path fill-rule="evenodd" clip-rule="evenodd" d="M16.2207 25.6566C16.2207 25.2424 16.5565 24.9066 16.9707 24.9066H22.7137C23.1279 24.9066 23.4637 25.2424 23.4637 25.6566C23.4637 26.0708 23.1279 26.4066 22.7137 26.4066H16.9707C16.5565 26.4066 16.2207 26.0708 16.2207 25.6566Z" fill="#535051"/>
  <path fill-rule="evenodd" clip-rule="evenodd" d="M14.5787 10.6136C12.8784 10.6136 11.5 11.992 11.5 13.6923V38.1001C11.5 39.8004 12.8784 41.1788 14.5787 41.1788H26.1956V42.6788H14.5787C12.0499 42.6788 10 40.6288 10 38.1001V13.6923C10 11.1636 12.0499 9.11363 14.5787 9.11363H35.1578C37.6865 9.11363 39.7365 11.1636 39.7365 13.6923V18.4781H38.2365V13.6923C38.2365 11.992 36.8581 10.6136 35.1578 10.6136H14.5787Z" fill="#535051"/>
  <path fill-rule="evenodd" clip-rule="evenodd" d="M31.0566 32.3568H32.5566V38.0356L35.6353 35.7266L38.714 38.0356V32.3568H40.214V41.0356L35.6353 37.6016L31.0566 41.0356V32.3568Z" fill="#535051"/>
  <path fill-rule="evenodd" clip-rule="evenodd" d="M35.6376 32.7717C38.2453 32.7717 40.3592 30.6577 40.3592 28.0501C40.3592 25.4424 38.2453 23.3285 35.6376 23.3285C33.0299 23.3285 30.916 25.4424 30.916 28.0501C30.916 30.6577 33.0299 32.7717 35.6376 32.7717ZM35.6376 34.2717C39.0737 34.2717 41.8592 31.4862 41.8592 28.0501C41.8592 24.614 39.0737 21.8285 35.6376 21.8285C32.2015 21.8285 29.416 24.614 29.416 28.0501C29.416 31.4862 32.2015 34.2717 35.6376 34.2717Z" fill="#535051"/>
</svg>