<svg width="25" height="24" viewBox="0 0 25 24" fill="none" xmlns="http://www.w3.org/2000/svg">
<g clip-path="url(#clip0_1946_12147)">
<path d="M20.5884 5.83325V10.0833H16.3384" stroke="#A6A5A5" stroke-width="2" stroke-linecap="round" stroke-linejoin="round"/>
<path d="M5.00502 17.1667V12.9167H9.25502" stroke="#A6A5A5" stroke-width="2" stroke-linecap="round" stroke-linejoin="round"/>
<path d="M6.78294 9.37503C7.14218 8.35984 7.75274 7.45219 8.55764 6.73679C9.36255 6.02138 10.3356 5.52153 11.3859 5.28388C12.4362 5.04623 13.5296 5.07852 14.5641 5.37775C15.5986 5.67697 16.5404 6.23337 17.3017 6.99503L20.5884 10.0834M5.00502 12.9167L8.29169 16.005C9.05297 16.7667 9.99478 17.3231 11.0293 17.6223C12.0637 17.9215 13.1572 17.9538 14.2075 17.7162C15.2578 17.4785 16.2308 16.9787 17.0357 16.2633C17.8406 15.5479 18.4512 14.6402 18.8104 13.625" stroke="#A6A5A5" stroke-width="2" stroke-linecap="round" stroke-linejoin="round"/>
</g>
<defs>
<clipPath id="clip0_1946_12147">
<rect width="17" height="17" fill="white" transform="translate(4.29669 3)"/>
</clipPath>
</defs>
</svg>
