<svg xmlns="http://www.w3.org/2000/svg" width="17" height="17" viewBox="0 0 17 17" fill="none">
  <g clip-path="url(#clip0_2435_8989)">
    <path d="M8.364 13.9733C7.36667 13.9733 6.45433 13.7297 5.627 13.2423C4.79967 12.755 4.13667 12.092 3.638 11.2533C3.13933 10.4147 2.89 9.49668 2.89 8.49934C2.89 8.15934 2.924 7.81934 2.992 7.47934L4.488 9.00934L5.236 8.26134L2.55 5.54134L0 8.15934L0.714 8.87334L1.87 7.71734C1.84733 7.98934 1.836 8.25001 1.836 8.49934C1.836 9.67801 2.13067 10.7717 2.72 11.7803C3.30933 12.789 4.10267 13.5823 5.1 14.1603C6.09733 14.7383 7.17967 15.0273 8.347 15.0273C9.51433 15.0273 10.5853 14.7553 11.56 14.2113C12.5347 13.6673 13.3167 12.9307 13.906 12.0013L12.954 11.4913C12.4553 12.262 11.8037 12.8683 10.999 13.3103C10.1943 13.7523 9.316 13.9733 8.364 13.9733ZM16.286 6.83334L15.13 8.02334L14.892 8.22734C14.8467 7.09401 14.5293 6.04568 13.94 5.08234C13.3507 4.11901 12.563 3.35968 11.577 2.80434C10.591 2.24901 9.52 1.97134 8.364 1.97134C7.548 1.97134 6.77733 2.11301 6.052 2.39634C5.32667 2.67968 4.66933 3.07068 4.08 3.56934L4.964 4.21534C5.96133 3.42201 7.09467 3.02534 8.364 3.02534C9.33867 3.02534 10.234 3.26334 11.05 3.73934C11.866 4.21534 12.5233 4.85568 13.022 5.66034C13.5207 6.46501 13.7927 7.34334 13.838 8.29534L12.512 6.93534L11.764 7.68334L14.314 10.3013L17 7.58134L16.286 6.83334Z" fill="#555555"/>
  </g>
  <defs>
    <clipPath id="clip0_2435_8989">
      <rect width="17" height="17" fill="white" transform="matrix(1 0 0 -1 0 17)"/>
    </clipPath>
  </defs>
</svg>