<svg width="24" height="24" viewBox="0 0 24 24" fill="none" xmlns="http://www.w3.org/2000/svg">
<rect width="24" height="24" rx="12" fill="#A6A5A5"/>
<path fill-rule="evenodd" clip-rule="evenodd" d="M8.04044 6.62639C7.64991 6.23587 7.01675 6.23587 6.62622 6.62639C6.2357 7.01691 6.2357 7.65008 6.62622 8.0406L10.5858 12.0002L6.62655 15.9595C6.23602 16.35 6.23602 16.9831 6.62655 17.3737C7.01707 17.7642 7.65024 17.7642 8.04076 17.3737L12 13.4144L15.9593 17.3737C16.3498 17.7642 16.983 17.7642 17.3735 17.3737C17.764 16.9831 17.764 16.35 17.3735 15.9595L13.4142 12.0002L17.3738 8.0406C17.7643 7.65008 17.7643 7.01691 17.3738 6.62639C16.9833 6.23586 16.3501 6.23587 15.9596 6.62639L12 10.586L8.04044 6.62639Z" fill="white"/>
</svg>
