<svg width="13" height="8" viewBox="0 0 13 8" fill="none" xmlns="http://www.w3.org/2000/svg">
<rect width="13" height="8" />
<g id="&#236;&#151;&#133;&#235;&#161;&#156;&#235;&#147;&#156; &#236;&#164;&#145; &#237;&#140;&#157;&#236;&#151;&#133;">
<path d="M-1022 -1497C-1022 -1498.1 -1021.1 -1499 -1020 -1499H14475C14476.1 -1499 14477 -1498.1 14477 -1497V3735C14477 3736.1 14476.1 3737 14475 3737H-1020C-1021.1 3737 -1022 3736.1 -1022 3735V-1497Z" fill="black"/>
<path d="M-1020 -1498H14475V-1500H-1020V-1498ZM14476 -1497V3735H14478V-1497H14476ZM14475 3736H-1020V3738H14475V3736ZM-1021 3735V-1497H-1023V3735H-1021ZM-1020 3736C-1020.55 3736 -1021 3735.55 -1021 3735H-1023C-1023 3736.66 -1021.66 3738 -1020 3738V3736ZM14476 3735C14476 3735.55 14475.6 3736 14475 3736V3738C14476.7 3738 14478 3736.66 14478 3735H14476ZM14475 -1498C14475.6 -1498 14476 -1497.55 14476 -1497H14478C14478 -1498.66 14476.7 -1500 14475 -1500V-1498ZM-1020 -1500C-1021.66 -1500 -1023 -1498.66 -1023 -1497H-1021C-1021 -1497.55 -1020.55 -1498 -1020 -1498V-1500Z" fill="black" fill-opacity="0.1"/>
<g id="tax invoice_upload" clip-path="url(#clip0_0_1)">
<rect width="1440" height="1024" transform="translate(-747 -606)" fill="#ffffff"/>
<g id="Frame 1597880852">
<g id="Frame 1597880851">
<g id="Frame 1597880846">
<g id="Frame 1597880843">
<rect x="-546" y="-263" width="1038" height="427" rx="15" stroke="#C0C0C0" stroke-width="2" stroke-dasharray="8 8"/>
<g id="Frame 1597880828">
<g id="Frame 1597880849">
<g id="Select file button">
<rect x="-84" y="-16.5" width="114" height="43" rx="21.5" fill="#009857" fill-opacity="0.1"/>
<rect x="-84" y="-16.5" width="114" height="43" rx="21.5" stroke="#009857"/>
<g id="&#237;&#140;&#140;&#236;&#157;&#188; &#236;&#151;&#133;&#235;&#161;&#156;&#235;&#147;&#156;">
<path id="Polygon 2" d="M5.40965 0.654111C6.00155 0.0275965 6.99845 0.0275953 7.59035 0.65411L11.9039 5.21988C12.8076 6.17642 12.1295 7.75 10.8135 7.75H2.18646C0.870542 7.75 0.192415 6.17642 1.09611 5.21989L5.40965 0.654111Z" fill="#009857"/>
</g>
</g>
</g>
</g>
</g>
</g>
</g>
</g>
</g>
</g>
<defs>
<clipPath id="clip0_0_1">
<rect width="1440" height="1024" fill="white" transform="translate(-747 -606)"/>
</clipPath>
</defs>
</svg>
