<svg width="16" height="16" viewBox="0 0 16 16" fill="none" xmlns="http://www.w3.org/2000/svg">
<path fill-rule="evenodd" clip-rule="evenodd" d="M9.66667 0.927246V2.59391H2.16667V14.2606H13.8333V6.76058H15.5V15.0939C15.5 15.3149 15.4122 15.5269 15.2559 15.6832C15.0996 15.8394 14.8877 15.9272 14.6667 15.9272H1.33333C1.11232 15.9272 0.900358 15.8394 0.744078 15.6832C0.587797 15.5269 0.5 15.3149 0.5 15.0939V1.76058C0.5 1.53957 0.587797 1.3276 0.744078 1.17132C0.900358 1.01504 1.11232 0.927246 1.33333 0.927246H9.66667ZM14.6167 1.22225L15.2058 1.81141C15.2839 1.88955 15.3278 1.99551 15.3278 2.106C15.3278 2.21648 15.2839 2.32244 15.2058 2.40058L7.42833 10.1772L5.76833 10.9939C5.72146 11.0171 5.66847 11.0251 5.61685 11.0166C5.56523 11.0081 5.51756 10.9837 5.48057 10.9467C5.44358 10.9097 5.41912 10.862 5.41065 10.8104C5.40217 10.7588 5.41011 10.7058 5.43333 10.6589L6.25 8.99891L14.0275 1.22141C14.1056 1.1433 14.2116 1.09942 14.3221 1.09942C14.4326 1.09942 14.5385 1.1433 14.6167 1.22141V1.22225Z" fill="#009857"/>
</svg>
